<svg xmlns="http://www.w3.org/2000/svg" width="248.5" height="133.3" viewBox="0 0 248.5 133.3"><path fill="#fff" d="M232.7 3a13.3 13.3 0 0 0-6.8 24.7l-8.4 26.5c-1.6-.5-3.1-.7-4.4-1l-5.3-20.4a13.3 13.3 0 0 0-6.4-24.9 13.5 13.5 0 0 0-13.2 13.2 13.5 13.5 0 0 0 13.2 13.3h.3l5.1 19.1c-8.4 2-15.3 9.9-21.7 17s-14 15.8-22.4 17.1c-2-22.9-9.7-41-22.9-54C118.4 12.7 90.7 13 89.6 13a60.2 60.2 0 0 0-60 60.1A43.4 43.4 0 0 0 42 103.4c-20.8 6.1-34.1 13.2-39.4 20.8a3.1 3.1 0 0 0-.3 3.3 3 3 0 0 0 2.8 1.8h213.4a3.2 3.2 0 0 0 3-2.8 3.1 3.1 0 0 0-2.3-3.5c-5.3-1.6-13.7-5.4-15.5-9a2.5 2.5 0 0 1 0-1.7c.8-1.8 3.8-5.6 7.1-9.5 8.7-10.1 20.4-24.4 18.9-35.6a14.4 14.4 0 0 0-6.6-10.2h-.3l8.9-27.5h1A13.3 13.3 0 0 0 246 16.3 13.4 13.4 0 0 0 232.7 3zm-31.3 25a7 7 0 1 1 0-14 6.9 6.9 0 0 1 7.1 7.1 6.9 6.9 0 0 1-7.1 6.9zM35.2 73.3a54.3 54.3 0 0 1 54.2-53.7c2.3 0 27 .5 45.6 18.8 13.7 13.5 20.8 33.4 21.6 58.8h-48.9a42.5 42.5 0 0 0 7.4-23.9 26 26 0 1 0-51.9 0 3.1 3.1 0 0 0 3 3.1 3.3 3.3 0 0 0 3.1-3.1 19.6 19.6 0 1 1 39.2 0 36.7 36.7 0 1 1-73.3 0zm188.4-5.1c1.2 8.7-10 21.9-17.3 30.8-3.9 4.6-6.9 8.2-7.9 10.7a7.5 7.5 0 0 0 0 7.1c1 2.3 3.3 4.6 5.8 6.4H12.8c6.8-5.1 18.8-10.2 34.8-14.5a42.6 42.6 0 0 0 24.5 7.6 42 42 0 0 0 30.3-12.7h57.3a3.1 3.1 0 0 0 3-3c0-2.1 0-4.4-.2-6.4 10.9-1.5 19.3-11 26.9-19.4C200.6 62.1 208 55 219.5 62.6a7.2 7.2 0 0 1 4.1 5.6zm9.1-44.8a7.1 7.1 0 0 1-7.1-7.1 7.2 7.2 0 0 1 14.3 0 7.1 7.1 0 0 1-7.2 7.1z"/></svg>